<svg xmlns="http://www.w3.org/2000/svg" width="960" height="300" viewBox="0 0 960 300" role="img">
<rect width="100%" height="100%" rx="20" fill="#0F172A"/>
<text x="480" y="42" text-anchor="middle" fill="#F8FAFC" font-family="system-ui,sans-serif" font-size="24" font-weight="700">Binary representation, made visible</text>
<text x="480" y="68" text-anchor="middle" fill="#94A3B8" font-family="system-ui,sans-serif" font-size="14">i8 −12: input → stored two’s-complement bits → hexadecimal</text>
<g font-family="system-ui,sans-serif"><text x="70" y="125" fill="#CBD5E1" font-size="15">decimal input</text><text x="70" y="166" fill="#F8FAFC" font-size="30" font-weight="700">−12</text><path d="M205 150H270" stroke="#64748B" stroke-width="3"/><path d="M270 150l-10-7v14z" fill="#64748B"/><text x="318" y="125" fill="#CBD5E1" font-size="15">stored i8 bits</text><rect x="318" y="140" width="42" height="52" rx="8" fill="#F97316"/><text x="339" y="174" text-anchor="middle" fill="#F8FAFC" font-size="24" font-weight="700">1</text><text x="339" y="215" text-anchor="middle" fill="#94A3B8" font-size="12">b7</text><rect x="370" y="140" width="42" height="52" rx="8" fill="#2563EB"/><text x="391" y="174" text-anchor="middle" fill="#F8FAFC" font-size="24" font-weight="700">1</text><text x="391" y="215" text-anchor="middle" fill="#94A3B8" font-size="12">b6</text><rect x="422" y="140" width="42" height="52" rx="8" fill="#2563EB"/><text x="443" y="174" text-anchor="middle" fill="#F8FAFC" font-size="24" font-weight="700">1</text><text x="443" y="215" text-anchor="middle" fill="#94A3B8" font-size="12">b5</text><rect x="474" y="140" width="42" height="52" rx="8" fill="#2563EB"/><text x="495" y="174" text-anchor="middle" fill="#F8FAFC" font-size="24" font-weight="700">1</text><text x="495" y="215" text-anchor="middle" fill="#94A3B8" font-size="12">b4</text><rect x="526" y="140" width="42" height="52" rx="8" fill="#1E293B"/><text x="547" y="174" text-anchor="middle" fill="#F8FAFC" font-size="24" font-weight="700">0</text><text x="547" y="215" text-anchor="middle" fill="#94A3B8" font-size="12">b3</text><rect x="578" y="140" width="42" height="52" rx="8" fill="#2563EB"/><text x="599" y="174" text-anchor="middle" fill="#F8FAFC" font-size="24" font-weight="700">1</text><text x="599" y="215" text-anchor="middle" fill="#94A3B8" font-size="12">b2</text><rect x="630" y="140" width="42" height="52" rx="8" fill="#1E293B"/><text x="651" y="174" text-anchor="middle" fill="#F8FAFC" font-size="24" font-weight="700">0</text><text x="651" y="215" text-anchor="middle" fill="#94A3B8" font-size="12">b1</text><rect x="682" y="140" width="42" height="52" rx="8" fill="#1E293B"/><text x="703" y="174" text-anchor="middle" fill="#F8FAFC" font-size="24" font-weight="700">0</text><text x="703" y="215" text-anchor="middle" fill="#94A3B8" font-size="12">b0</text><text x="318" y="245" fill="#FB923C" font-size="13">orange = sign bit</text><path d="M745 150H805" stroke="#64748B" stroke-width="3"/><path d="M805 150l-10-7v14z" fill="#64748B"/><text x="835" y="125" fill="#CBD5E1" font-size="15">hex</text><text x="835" y="174" fill="#22C55E" font-size="30" font-weight="700">F4</text></g>
</svg>
