<svg xmlns="http://www.w3.org/2000/svg" width="960" height="340" viewBox="0 0 960 340" role="img">
<rect width="100%" height="100%" rx="20" fill="#0F172A"/>
<text x="480" y="42" text-anchor="middle" fill="#F8FAFC" font-family="system-ui,sans-serif" font-size="24" font-weight="700">Cursor operations become list states</text>
<text x="480" y="68" text-anchor="middle" fill="#94A3B8" font-family="system-ui,sans-serif" font-size="14">The same int_list operations shown by list-demo</text>
<rect x="36" y="98" width="888" height="44" rx="10" fill="#172554"/><text x="58" y="117" fill="#BFDBFE" font-family="system-ui,sans-serif" font-size="14">1. append 20</text><text x="340" y="129" fill="#F8FAFC" font-family="monospace" font-size="17">[20]</text><path d="M438 122 l-7 -9 h14 z" fill="#4ADE80"/><text x="438" y="140" text-anchor="middle" fill="#86EFAC" font-family="system-ui,sans-serif" font-size="11">cursor</text><rect x="36" y="154" width="888" height="44" rx="10" fill="#172554"/><text x="58" y="173" fill="#BFDBFE" font-family="system-ui,sans-serif" font-size="14">2. insert 10 before cursor</text><text x="340" y="185" fill="#F8FAFC" font-family="monospace" font-size="17">[10]  ↔  [20]</text><path d="M390 178 l-7 -9 h14 z" fill="#4ADE80"/><text x="390" y="196" text-anchor="middle" fill="#86EFAC" font-family="system-ui,sans-serif" font-size="11">cursor</text><rect x="36" y="210" width="888" height="44" rx="10" fill="#172554"/><text x="58" y="229" fill="#BFDBFE" font-family="system-ui,sans-serif" font-size="14">3. insert 15 before cursor</text><text x="340" y="241" fill="#F8FAFC" font-family="monospace" font-size="17">[10]  ↔  [15]  ↔  [20]</text><path d="M508 234 l-7 -9 h14 z" fill="#4ADE80"/><text x="508" y="252" text-anchor="middle" fill="#86EFAC" font-family="system-ui,sans-serif" font-size="11">cursor</text><rect x="36" y="266" width="888" height="44" rx="10" fill="#172554"/><text x="58" y="285" fill="#BFDBFE" font-family="system-ui,sans-serif" font-size="14">4. erase 20; cursor moves back</text><text x="340" y="297" fill="#F8FAFC" font-family="monospace" font-size="17">[10]  ↔  [15]</text><path d="M508 290 l-7 -9 h14 z" fill="#4ADE80"/><text x="508" y="308" text-anchor="middle" fill="#86EFAC" font-family="system-ui,sans-serif" font-size="11">cursor</text></svg>
